<svg width="22" height="21" viewBox="0 0 22 21" fill="none" xmlns="http://www.w3.org/2000/svg">
<path d="M13 7.78079L0 7.79379L0.001003 8.79679L13.001 8.78379L13 7.78079Z" fill="#ffff00"/>
<path d="M9 11.7848L0 11.7938L0.001003 12.7968L9.001 12.7878L9 11.7848Z" fill="#ffff00"/>
<path d="M9 19.7848L0 19.7938L0.001003 20.7968L9.001 20.7878L9 19.7848Z" fill="#ffff00"/>
<path d="M13 15.7808L0 15.7938L0.001003 16.7968L13.001 16.7838L13 15.7808Z" fill="#ffff00"/>
<path d="M16.9247 8.98946V5.25311H20.661L20.6271 4.22921L16.8907 4.22922V0.497098H15.9008V4.23345L12.1666 4.23133V5.22128H15.9029V8.95763L16.9247 8.98946Z" fill="#ffff00"/>
</svg>