<svg width="98" height="68" viewBox="0 0 98 68" fill="fff000" xmlns="http://www.w3.org/2000/svg">
<rect width="98" height="67.375" rx="33.6875" transform="matrix(-1 0 0 1 98 0)" fill="#fff000"/>
<rect width="23.7207" height="6.392" rx="3.196" transform="matrix(-0.696215 0.717833 0.717833 0.696215 45.0039 17.3679)" fill="000"/>
<path d="M47.0622 48.904C45.8349 50.1725 43.8116 50.206 42.543 48.9786L30.2974 37.1312C29.0289 35.9039 28.9954 33.8805 30.2228 32.612C31.4501 31.3434 33.4734 31.31 34.742 32.5373L46.9875 44.3847C48.2561 45.6121 48.2895 47.6354 47.0622 48.904Z" fill="000"/>
<path d="M66.4991 34.8674C66.4991 36.8003 64.9321 38.3673 62.9991 38.3673L37.3328 38.3673C35.3999 38.3673 33.8329 36.8004 33.8329 34.8674C33.8329 32.9344 35.3999 31.3674 37.3328 31.3674L62.9991 31.3674C64.9321 31.3674 66.4991 32.9344 66.4991 34.8674Z" fill="000"/>
</svg>
