<svg width="30" height="21" viewBox="0 0 30 21" fill="none" xmlns="http://www.w3.org/2000/svg">
<path d="M21.5288 8.15123L8.99002 8.16376L8.99127 9.41752L21.53 9.40498L21.5288 8.15123Z" fill="#ffff00"/>
<path d="M21.5288 13.1512L8.99002 13.1638L8.99127 14.4175L21.53 14.405L21.5288 13.1512Z" fill="#ffff00"/>
<path d="M21.5288 18.1512L8.99002 18.1638L8.99127 19.4175L21.53 19.405L21.5288 18.1512Z" fill="#ffff00"/>
<path d="M0 16.6413L0.711365 16.0238L3.17993 18.8238V8.76379L0.712585 11.5626L0 10.9463L3.65387 6.77008L7.30621 10.9463L6.59485 11.5626L4.12628 8.76379V18.8238L6.59485 16.0238L7.30621 16.6413L3.65387 20.8175L0 16.6413Z" fill="#ffff00"/>
<path d="M25.9525 0H25.1188V3.33378H21.8275V4.16752H25.1188V7.5H25.9525V4.16626H29.3275V3.33252H25.9525V0Z" fill="#ffff00"/>
</svg>
