<svg width="43" height="26" viewBox="0 0 43 26" fill="000" xmlns="http://www.w3.org/2000/svg">
<path d="M16.48 16.67H7.08L5.44 20.5C5.11 21.16 4.9 21.88 4.83 22.61C4.84 23 5.04 23.36 5.36 23.58C6.06 23.95 6.85 24.14 7.64 24.12V24.78H0V24.12C0.7 24.06 1.38 23.83 1.97 23.43C2.85 22.4 3.54 21.22 3.99 19.94L12.52 0H13.15L21.59 20.16C21.99 21.33 22.62 22.4 23.44 23.32C24.1 23.84 24.91 24.13 25.76 24.13V24.79H16.19V24.13C16.88 24.16 17.56 23.99 18.15 23.65C18.47 23.42 18.66 23.04 18.66 22.65C18.57 21.79 18.33 20.95 17.95 20.16L16.49 16.67H16.48ZM15.98 15.35L11.86 5.55L7.64 15.35H15.98ZM36.6 22.43C35.6 23.26 34.54 24.01 33.44 24.68C32.79 24.98 32.09 25.13 31.37 25.13C30.31 25.16 29.29 24.73 28.57 23.96C27.81 23.13 27.42 22.03 27.47 20.9C27.45 20.17 27.64 19.46 28.01 18.83C28.66 17.87 29.53 17.08 30.56 16.53C32.5 15.49 34.52 14.62 36.6 13.92V13.28C36.72 12.1 36.45 10.92 35.82 9.92C35.25 9.28 34.41 8.95 33.56 9C32.91 8.97 32.27 9.18 31.77 9.61C31.35 9.95 31.09 10.46 31.08 11L31.12 12.04C31.15 12.5 31 12.96 30.7 13.31C30.41 13.61 30.01 13.77 29.6 13.76C29.19 13.77 28.79 13.61 28.52 13.3C28.22 12.95 28.07 12.49 28.1 12.03C28.16 10.9 28.74 9.85 29.67 9.21C30.95 8.28 32.51 7.82 34.09 7.92C35.32 7.87 36.55 8.12 37.67 8.65C38.39 9.03 38.94 9.65 39.24 10.41C39.52 11.43 39.63 12.5 39.56 13.56V19.12C39.54 20.08 39.56 21.04 39.65 21.99C39.67 22.25 39.77 22.5 39.94 22.7C40.07 22.82 40.24 22.88 40.41 22.88C40.59 22.88 40.76 22.84 40.91 22.75C41.43 22.36 41.92 21.92 42.36 21.45V22.45C41.02 24.23 39.75 25.11 38.54 25.11C38.01 25.13 37.49 24.91 37.15 24.5C36.74 23.89 36.55 23.16 36.6 22.43ZM36.6 21.27V15.03C35.41 15.47 34.25 15.98 33.11 16.55C32.32 16.94 31.63 17.51 31.09 18.19C30.69 18.74 30.48 19.39 30.48 20.07C30.45 20.85 30.73 21.62 31.25 22.21C31.69 22.74 32.33 23.05 33.02 23.06C34.37 22.85 35.62 22.23 36.59 21.27H36.6Z" fill="yellow"/>
</svg>