<?xml version="1.0" encoding="UTF-8"?>
<svg version="1.1" xmlns="http://www.w3.org/2000/svg" width="512" height="512">
<path d="M0 0 C16.5 0 33 0 50 0 C50.04010881 21.11951638 50.04010881 21.11951638 50.04882812 30.25585938 C50.05476153 36.44328693 50.06171135 42.63069942 50.07543945 48.81811523 C50.08645928 53.81726558 50.0923164 58.81639972 50.09487724 63.81556129 C50.09669765 65.70451932 50.1002504 67.59347665 50.10573006 69.4824276 C50.13815872 81.1457338 49.8594585 92.74561866 49.22142029 104.39216614 C48.91164671 110.26300481 48.90185034 116.12192614 49 122 C49.4125 121.443125 49.825 120.88625 50.25 120.3125 C62.80521577 103.72167916 79.36330308 92.68242035 100.15820312 89.32958984 C116.31430277 87.4558154 133.59330113 87.36070592 149 93 C150.07765625 93.37382813 151.1553125 93.74765625 152.265625 94.1328125 C172.97990618 101.99174833 187.8159318 119.31822548 197.09326172 138.9609375 C214.93169922 179.07580825 213.75966609 231.40130709 198.5234375 272.03125 C189.480694 294.27543187 173.93985763 311.23798288 152 321 C129.79369681 329.80414609 103.29461876 329.2044197 81 321 C69.95176096 315.97011088 54.67932204 307.35864407 49 296 C48.01 295.67 47.02 295.34 46 295 C45.73445313 296.27746094 45.46890625 297.55492187 45.1953125 298.87109375 C44.04747568 304.03635942 42.50577759 309.03256202 40.875 314.0625 C39.92625 317.011875 38.9775 319.96125 38 323 C25.46 323 12.92 323 0 323 C0 216.41 0 109.82 0 0 Z M63.96484375 144.46875 C50.52193944 161.78684541 49.59286311 185.65866366 49.6875 206.6875 C49.68932281 207.52660919 49.69114563 208.36571838 49.69302368 209.23025513 C49.77410306 231.37654702 51.1297477 255.80051518 66.875 273.0546875 C78.03949834 283.54391376 92.42584177 286.52328989 107.32592773 286.42163086 C120.72463916 285.98978217 132.12389717 280.84492175 141.3125 271.08203125 C159.39838814 248.76772944 160.04274243 215.20252491 157.49609375 187.984375 C155.50463759 170.13098571 151.01029878 151.46549585 136.84375 139.12109375 C115.80348339 124.0071689 82.0907461 124.80230983 63.96484375 144.46875 Z " fill="#ffff00" transform="translate(285,0)"/>
<path d="M0 0 C0.74782745 -0.00626404 1.49565491 -0.01252808 2.2661438 -0.01898193 C25.95138977 -0.14463656 50.64736376 4.39310898 68.34765625 21.2265625 C69.07855469 21.95617187 69.80945313 22.68578125 70.5625 23.4375 C71.13871094 24.00210938 71.71492187 24.56671875 72.30859375 25.1484375 C83.07559019 36.61458955 87.69397622 54.31508427 87.68275452 69.68881226 C87.68403615 70.75005859 87.68403615 70.75005859 87.68534368 71.83274424 C87.68698397 74.19109396 87.681501 76.54937173 87.67602539 78.90771484 C87.67574318 80.60315957 87.67590192 82.29860442 87.6764679 83.99404907 C87.67675454 88.5885993 87.67087917 93.18312337 87.66389394 97.77766752 C87.6576384 102.58229661 87.65705486 107.38692631 87.65586853 112.19155884 C87.65276171 121.2861852 87.64455705 130.38079953 87.63451904 139.47542059 C87.62333777 149.83086288 87.61784237 160.18630575 87.61282361 170.54175258 C87.60237391 191.84034326 87.58403648 213.13891744 87.5625 234.4375 C76.0125 234.4375 64.4625 234.4375 52.5625 234.4375 C50.82111202 229.79379873 49.15836074 225.34073568 47.73828125 220.625 C47.43212891 219.61308594 47.12597656 218.60117187 46.81054688 217.55859375 C46.50181641 216.52863281 46.19308594 215.49867188 45.875 214.4375 C45.55466797 213.37660156 45.23433594 212.31570313 44.90429688 211.22265625 C44.1213187 208.62831064 43.3407803 206.03325801 42.5625 203.4375 C39.16424829 206.18643444 36.10651372 208.76029243 33.375 212.1875 C19.05139441 228.75306124 0.19442489 235.79729105 -21.0625 238.1875 C-22.85258937 238.29972273 -24.64480578 238.38039201 -26.4375 238.4375 C-27.65695313 238.47746094 -28.87640625 238.51742187 -30.1328125 238.55859375 C-52.6756417 239.04572362 -73.28844804 234.64767967 -90.1171875 218.84765625 C-104.12197785 204.30059287 -107.94002541 185.30405017 -107.79321289 165.74267578 C-107.3061961 147.30025989 -101.2574389 131.61999085 -87.8125 118.75 C-54.57470038 90.46251096 -2.26519181 93.07882991 38.5625 93.4375 C38.46829649 68.71235612 38.46829649 68.71235612 26.8515625 47.625 C14.54037969 37.23581619 -2.59985012 38.3843128 -17.66943359 39.62060547 C-33.2900773 41.33418207 -49.07820278 47.7121376 -63.1315918 54.48876953 C-65.4375 55.4375 -65.4375 55.4375 -68.4375 55.4375 C-70.60967622 50.98006494 -72.76357746 46.51442879 -74.90112305 42.0402832 C-75.63055523 40.51999809 -76.36489525 39.00205752 -77.10424805 37.48657227 C-78.16718826 35.30565055 -79.21209617 33.11686 -80.25390625 30.92578125 C-80.58717422 30.25162674 -80.9204422 29.57747223 -81.2638092 28.88288879 C-82.61809628 25.99617214 -83.44809122 23.80765185 -83.35620117 20.59619141 C-82.23775988 17.96816646 -81.5316119 17.4856008 -78.921875 16.41015625 C-78.17655518 16.09594727 -77.43123535 15.78173828 -76.66333008 15.45800781 C-75.84630615 15.14186523 -75.02928223 14.82572266 -74.1875 14.5 C-73.33631592 14.15936523 -72.48513184 13.81873047 -71.6081543 13.46777344 C-62.07245541 9.75272434 -52.39070769 6.80223137 -42.4375 4.4375 C-41.1076709 4.11990723 -41.1076709 4.11990723 -39.75097656 3.79589844 C-26.54362581 0.79487635 -13.49028432 0.05272302 0 0 Z M17.88378906 125.12719727 C16.19128222 125.20803006 14.49856757 125.28464048 12.80566406 125.35668945 C-8.11272493 126.25054989 -32.38548667 127.68565043 -47.8125 143.625 C-55.38545866 152.86891513 -56.51957398 162.94032444 -55.66503906 174.50341797 C-54.78922955 181.94779883 -51.12474123 188.59098139 -45.4375 193.4375 C-34.33059981 201.40733678 -19.53607963 201.31333455 -6.546875 199.25390625 C7.9606035 196.56519597 20.99924061 189.7351131 29.5625 177.4375 C39.88793748 160.91191803 38.97851975 143.21385809 38.5625 124.4375 C31.66415259 124.36546566 24.77176812 124.79041369 17.88378906 125.12719727 Z " fill="#ffff00" transform="translate(125.4375,87.5625)"/>
<path d="M0 0 C3.27534961 1.36941294 5.11569012 3.23631224 7.56640625 5.796875 C8.40300781 6.65796875 9.23960937 7.5190625 10.1015625 8.40625 C10.89433594 9.27765625 11.68710938 10.1490625 12.50390625 11.046875 C13.26574219 11.87703125 14.02757812 12.7071875 14.8125 13.5625 C16.50390625 16.046875 16.50390625 16.046875 17.12109375 18.5 C16.18550961 22.36076494 13.54089428 24.31431944 10.62890625 26.796875 C10.03537354 27.32273193 9.44184082 27.84858887 8.83032227 28.39038086 C7.62543283 29.45651268 6.41556701 30.51704805 5.20068359 31.57177734 C2.92024124 33.55428564 0.68137362 35.58134581 -1.55859375 37.609375 C-2.35265625 38.3209375 -3.14671875 39.0325 -3.96484375 39.765625 C-7.78382811 43.20742572 -11.5630496 46.69202226 -15.34375 50.17578125 C-19.3619968 53.83552276 -23.43386976 57.43600923 -27.49609375 61.046875 C43.12390625 61.046875 113.74390625 61.046875 186.50390625 61.046875 C176.31588725 51.63695378 176.31588725 51.63695378 166.0390625 42.33203125 C163.13477374 39.71414384 160.25618917 37.06935305 157.37890625 34.421875 C153.27972872 30.65154696 149.14117112 26.93378331 144.9296875 23.2890625 C142.52512425 21.19412795 142.52512425 21.19412795 142.11328125 18.3359375 C142.62520916 14.02550448 144.67199886 12.19794425 147.75390625 9.421875 C148.24503906 8.9578125 148.73617187 8.49375 149.2421875 8.015625 C150.65375581 6.68310452 152.07859774 5.36468818 153.50390625 4.046875 C154.179375 3.25539063 154.85484375 2.46390625 155.55078125 1.6484375 C157.50390625 0.046875 157.50390625 0.046875 159.89868164 0.25537109 C162.75318023 1.12260794 164.02205886 2.0440303 166.140625 4.109375 C166.79514648 4.73682617 167.44966797 5.36427734 168.12402344 6.01074219 C168.80625977 6.68266602 169.48849609 7.35458984 170.19140625 8.046875 C171.62691668 9.42779835 173.06311243 10.80800966 174.5 12.1875 C175.19077637 12.85587891 175.88155273 13.52425781 176.59326172 14.21289062 C178.9344747 16.4601679 181.33109773 18.63801473 183.75390625 20.796875 C187.31881705 23.98025689 190.85808804 27.18985188 194.37890625 30.421875 C194.8805127 30.88223145 195.38211914 31.34258789 195.89892578 31.81689453 C197.94811586 33.69832233 199.99649967 35.58062688 202.04492188 37.46289062 C207.95306762 42.89057725 213.8814778 48.29311228 219.85546875 53.6484375 C221.86173289 55.46531977 223.85526737 57.29248698 225.83984375 59.1328125 C226.41613525 59.66720947 226.99242676 60.20160645 227.58618164 60.75219727 C228.70923062 61.79537935 229.83089677 62.84005285 230.95092773 63.88647461 C233.35084654 66.11648766 235.73614073 68.2285397 238.3203125 70.25 C240.50390625 72.046875 240.50390625 72.046875 241.62890625 74.484375 C241.44240482 78.30765429 239.23132108 79.46441368 236.50390625 82.046875 C235.71371094 82.84867187 234.92351562 83.65046875 234.109375 84.4765625 C229.78448317 88.85036264 225.4195744 93.08344515 220.75 97.0859375 C217.86735405 99.60261275 215.06093609 102.19644978 212.25390625 104.796875 C211.69815918 105.31145264 211.14241211 105.82603027 210.56982422 106.35620117 C209.43821326 107.40418833 208.30670314 108.45228437 207.17529297 109.50048828 C200.18890346 115.96437831 193.15457417 122.3739643 186.0703125 128.73046875 C183.69922851 130.87057957 181.34171845 133.02418285 178.99072266 135.1862793 C177.96488458 136.12854374 176.93723664 137.06884189 175.90771484 138.00708008 C173.55773853 140.14912416 171.23461989 142.30832607 168.953125 144.5234375 C168.18613281 145.25304687 167.41914063 145.98265625 166.62890625 146.734375 C165.97148437 147.37761719 165.3140625 148.02085937 164.63671875 148.68359375 C161.55265625 150.65490843 160.11074597 150.78583728 156.50390625 150.046875 C153.70211212 147.95335671 151.45008857 145.46404201 149.12890625 142.859375 C148.16791016 141.84907227 148.16791016 141.84907227 147.1875 140.81835938 C142.57535427 135.77843467 142.57535427 135.77843467 142.24755859 132.42211914 C142.56720956 129.46032461 143.33017333 128.66122879 145.50390625 126.671875 C146.15101563 126.06988281 146.798125 125.46789062 147.46484375 124.84765625 C148.13773438 124.25339844 148.810625 123.65914063 149.50390625 123.046875 C150.09429687 122.52480469 150.6846875 122.00273437 151.29296875 121.46484375 C152.57281427 120.34565969 153.85701844 119.23144879 155.14453125 118.12109375 C158.10255331 115.52058098 160.990739 112.84946853 163.87890625 110.171875 C171.29349395 103.30457234 178.73791869 96.5185313 186.50390625 90.046875 C116.21390625 90.046875 45.92390625 90.046875 -26.49609375 90.046875 C-21.94877073 94.59419802 -17.64600385 98.85525295 -12.8203125 103.0078125 C-9.29620105 106.09955397 -5.87241655 109.29785658 -2.43505859 112.48535156 C1.79717439 116.40586549 6.07406736 120.27292064 10.3828125 124.109375 C11.08277344 124.74875 11.78273438 125.388125 12.50390625 126.046875 C13.63119141 127.0059375 13.63119141 127.0059375 14.78125 127.984375 C16.50390625 130.046875 16.50390625 130.046875 17.12109375 132.37890625 C16.16950841 136.49240489 13.54324153 138.7900294 10.62890625 141.734375 C10.07332031 142.31509766 9.51773438 142.89582031 8.9453125 143.49414062 C2.68019445 150.0234504 2.68019445 150.0234504 -0.34765625 150.42578125 C-4.27630054 149.95297915 -5.25989703 148.89163677 -7.87109375 145.984375 C-10.53568349 143.13449922 -13.14459444 140.38292876 -16.12109375 137.859375 C-20.18978229 134.37076053 -24.08902447 130.71386905 -27.99609375 127.046875 C-33.67054686 121.713517 -33.67054686 121.713517 -39.49609375 116.546875 C-44.13184335 112.56175692 -48.54975264 108.34121044 -53.0078125 104.16015625 C-56.12924697 101.23809484 -59.25314303 98.33467475 -62.49609375 95.546875 C-66.51099912 92.04369888 -70.48974843 88.50484559 -74.43359375 84.921875 C-75.10970703 84.32310547 -75.78582031 83.72433594 -76.48242188 83.10742188 C-79.1864967 80.62937573 -81.1910036 78.75600345 -82.65234375 75.359375 C-82.43812384 72.18892028 -81.38678991 71.29321819 -79.05859375 69.171875 C-78.3109375 68.47835937 -77.56328125 67.78484375 -76.79296875 67.0703125 C-76.035 66.40257812 -75.27703125 65.73484375 -74.49609375 65.046875 C-73.8825 64.50289063 -73.26890625 63.95890625 -72.63671875 63.3984375 C-71.36968058 62.28842542 -70.09714674 61.18466716 -68.8203125 60.0859375 C-65.87199013 57.49934208 -62.99693221 54.83852376 -60.12109375 52.171875 C-56.27010725 48.60253357 -52.40731822 45.05041483 -48.49609375 41.546875 C-44.6294686 38.08197714 -40.80593516 34.57385116 -36.99609375 31.046875 C-32.40241969 26.79426258 -27.77343118 22.58566972 -23.109375 18.41015625 C-19.38884958 15.04555553 -15.71422314 11.63156996 -12.04882812 8.20703125 C-11.02080973 7.25180422 -9.98698895 6.3027742 -8.94677734 5.36083984 C-7.59072866 4.1325911 -6.25544198 2.88152835 -4.921875 1.62890625 C-2.49609375 0.046875 -2.49609375 0.046875 0 0 Z " fill="#ffff00" transform="translate(169.49609375,361.953125)"/>
</svg>
