<svg width="112" height="77" viewBox="0 0 112 77" fill="none" xmlns="http://www.w3.org/2000/svg">
<rect x="1.5" y="1.5" width="109" height="74" rx="37" fill="white" stroke="white" stroke-width="3"/>
<rect x="60.5664" y="19.8489" width="27.1094" height="7.30514" rx="3.65257" transform="rotate(45.8759 60.5664 19.8489)" fill="#4A7D8B"/>
<path d="M58.215 55.89C59.6177 57.3398 61.9301 57.378 63.3798 55.9754L77.3748 42.4354C78.8246 41.0328 78.8628 38.7204 77.4601 37.2706C76.0575 35.8208 73.7451 35.7826 72.2953 37.1853L58.3004 50.7252C56.8506 52.1279 56.8124 54.4402 58.215 55.89Z" fill="#4A7D8B"/>
<path d="M36.0004 39.8483C36.0004 42.0574 37.7912 43.8483 40.0003 43.8483L69.3333 43.8483C71.5424 43.8483 73.3332 42.0574 73.3332 39.8483C73.3332 37.6392 71.5424 35.8484 69.3333 35.8484L40.0004 35.8484C37.7912 35.8484 36.0004 37.6392 36.0004 39.8483Z" fill="#4A7D8B"/>
</svg>
