<svg width="20" height="20" viewBox="0 0 20 20" fill="none" xmlns="http://www.w3.org/2000/svg">
<path d="M19.8263 8.05201C19.4414 6.09562 18.4897 4.29846 17.0916 2.88811C15.6935 1.47776 13.9119 0.517671 11.9725 0.129434C11.3126 0.0287353 10.6452 -0.0133445 9.97794 0.00367885C7.71953 -0.0205086 5.52058 0.733686 3.74482 2.14152V2.14152L2.99685 2.89605L2.24888 3.65058C1.99955 3.90209 1.87489 4.27935 1.62557 4.53086C1.5009 4.78237 1.25158 5.15964 1.12692 5.41115C0.986009 5.75867 0.81932 6.09497 0.628268 6.41719V6.41719C0.50099 6.7398 0.417136 7.07816 0.378943 7.42323V7.42323C0.236946 7.7848 0.152789 8.16683 0.129619 8.55503V8.55503C0.0267798 8.92284 -0.0153373 9.30521 0.00495635 9.68682V9.68682V10.8186C0.00495635 11.1959 0.129619 11.5732 0.129619 11.9504C0.550124 14.1501 1.69171 16.1433 3.37084 17.6094C3.68007 17.8907 4.01386 18.1432 4.36814 18.3639C5.4532 19.1204 6.68565 19.6349 7.98334 19.873C8.23267 19.873 8.60665 19.9987 8.85598 19.9987H9.85328C11.3354 20.0223 12.8041 19.7129 14.1529 19.0929C15.5017 18.4728 16.6969 17.5578 17.6517 16.414C18.6064 15.2703 19.2969 13.9265 19.6731 12.4802C20.0492 11.0339 20.1015 9.52126 19.8263 8.05201V8.05201ZM16.7097 15.7231C15.8892 16.7181 14.8594 17.5165 13.695 18.0603C12.5307 18.604 11.261 18.8796 9.97794 18.867H9.85328V1.26123H9.97794C10.5625 1.24045 11.1475 1.28261 11.7232 1.38699C13.4294 1.69586 15.0009 2.52419 16.2266 3.76064C17.4523 4.99709 18.2734 6.58241 18.5796 8.30352C18.8074 9.60328 18.7584 10.937 18.436 12.2163C18.1136 13.4955 17.5252 14.6909 16.7097 15.7231V15.7231Z" fill="#FFFFFF"/>
</svg>