<svg width="27" height="41" viewBox="0 0 27 41" fill="none" xmlns="http://www.w3.org/2000/svg">
<rect y="13.958" width="19.8607" height="5.4238" fill="white"/>
<rect y="34.7764" width="19.8607" height="5.4238" fill="white"/>
<rect y="24.6465" width="13.2405" height="5.18452" fill="white"/>
<path d="M21.1144 37.3127C21.1144 36.9492 21.1858 36.6052 21.3286 36.2806C21.4844 35.9561 21.6921 35.6705 21.9517 35.4238C22.2114 35.1772 22.5165 34.9889 22.867 34.8591C23.2175 34.7163 23.594 34.6449 23.9964 34.6449C24.3989 34.6449 24.7753 34.7163 25.1259 34.8591C25.4764 34.9889 25.7814 35.1772 26.0411 35.4238C26.3007 35.6705 26.502 35.9561 26.6448 36.2806C26.8005 36.6052 26.8784 36.9492 26.8784 37.3127C26.8784 37.6892 26.8005 38.0462 26.6448 38.3837C26.502 38.7083 26.3007 38.9939 26.0411 39.2405C25.7814 39.4742 25.4764 39.6625 25.1259 39.8053C24.7753 39.9481 24.3989 40.0195 23.9964 40.0195C23.594 40.0195 23.2175 39.9481 22.867 39.8053C22.5165 39.6625 22.2114 39.4742 21.9517 39.2405C21.6921 38.9939 21.4844 38.7083 21.3286 38.3837C21.1858 38.0462 21.1144 37.6892 21.1144 37.3127Z" fill="#376370"/>
</svg>
